# xmcd CD database file
#
# Track frame offsets:
#	187
#	24052
#	43032
#	63072
#	89830
#	109877
#	129570
#	150822
#	169105
#
# Disc length: 2556 seconds
#
# Revision: 3
# Processed by: cddbd v1.5.2PL0 Copyright (c) Steve Scherf et al.
# Submitted via: CDex 1.51
#
DISCID=6509fa09
DTITLE=NIGHT RANGER - BIG LIFE
DYEAR=1987
DGENRE=Hard Rock
TTITLE0=Big Life
TTITLE1=Color Of Your Smile
TTITLE2=Love Is Standing Near
TTITLE3=Rain Comes Crashing Down
TTITLE4=The Secret Of My Success
TTITLE5=Carry On
TTITLE6=Better Let It Go
TTITLE7=I Know Tonight
TTITLE8=Hearts Away
EXTD=YEAR: 1987
EXTT0=
EXTT1=
EXTT2=
EXTT3=
EXTT4=
EXTT5=
EXTT6=
EXTT7=
EXTT8=
PLAYORDER=
